<svg width="39.994888" height="39.995743" viewBox="0 0 39.9949 39.9957" fill="none" xmlns="http://www.w3.org/2000/svg" xmlns:xlink="http://www.w3.org/1999/xlink">
	<defs/>
	<path id="Эллипс 1" d="M39.9949 19.502C39.8837 14.9831 38.2694 10.8332 35.6337 7.53418C32.6994 3.84775 28.7186 1.47783 24.4496 0.507446C19.857 -0.545227 15.2671 0.0838928 11.3244 1.98691C7.07748 4.02733 3.88116 7.38095 1.98517 11.327C-0.0630493 15.5702 -0.471069 20.185 0.506897 24.4523C1.55112 29.0468 4.10944 32.9092 7.53464 35.6358C11.0756 38.4649 15.2894 39.8909 19.5011 39.9957C19.7771 39.9957 20.001 39.7781 20.001 39.502C20.001 39.2258 19.7771 38.9955 19.5011 38.9955C15.2178 38.8846 11.2847 37.3521 8.15663 34.853C4.65451 32.0655 2.40311 28.2837 1.48123 24.2281C0.481201 19.8652 1.07886 15.5047 2.88672 11.7592C4.8251 7.72459 8.01105 4.68811 11.7598 2.8869C15.7908 0.941101 20.1749 0.553497 24.2289 1.48256C28.5936 2.47456 32.2629 4.90495 34.8531 8.15892C37.5352 11.5158 38.8898 15.5093 38.9945 19.5021C38.9945 19.7781 39.2249 20.002 39.501 20.002C39.7772 20.002 39.9949 19.7781 39.9949 19.502Z" fill="#1F5473" fill-opacity="1.000000" fill-rule="evenodd"/>
</svg>
