<svg width="23" height="20" viewBox="0 0 23 20" fill="none" xmlns="http://www.w3.org/2000/svg">
                        <path
                            fill-rule="evenodd"
                            clip-rule="evenodd"
                            d="M13.8099 0H23.3333V20H13.8099L22.747 11.0196C23.3052 10.4587 23.3052 9.54127 22.747 8.98039L13.8099 0ZM0 0H9.52339L0.586308 8.98039C0.0281374 9.54127 0.0281374 10.4587 0.586308 11.0196L9.52339 20H0V0Z"
                            fill="#1F5473"
                        />
                        <path
                            d="M8.07028 6.50342H10.1732C9.79199 6.73415 9.58506 7.10533 9.44982 7.53032H8.07028C7.87424 7.53032 7.69635 7.61149 7.56657 7.74191C7.43678 7.87232 7.356 8.05198 7.356 8.24806V11.8422C7.356 12.0392 7.43678 12.218 7.56657 12.3484C7.69635 12.4788 7.87515 12.56 8.07028 12.56H9.44982C9.58415 12.985 9.79199 13.3561 10.1732 13.5869H8.07028C7.59198 13.5869 7.15815 13.3908 6.84412 13.0752C6.53009 12.7597 6.33496 12.3228 6.33496 11.8431V8.24897C6.33496 7.76835 6.53009 7.33242 6.84412 7.01687C7.15815 6.6995 7.59289 6.50342 8.07028 6.50342Z"
                            fill="#1A1A18"
                        />
                        <path
                            d="M11.7424 6.50342H13.8453C13.4641 6.73415 13.2572 7.10533 13.1219 7.53032H11.7424C11.5464 7.53032 11.3685 7.61149 11.2387 7.74191C11.1089 7.87232 11.0281 8.05198 11.0281 8.24806V11.8422C11.0281 12.0392 11.1089 12.218 11.2387 12.3484C11.3685 12.4788 11.5473 12.56 11.7424 12.56H13.1219C13.2563 12.985 13.4641 13.3561 13.8453 13.5869H11.7424C11.2641 13.5869 10.8303 13.3908 10.5162 13.0752C10.2022 12.7597 10.0071 12.3228 10.0071 11.8431V8.24897C10.0071 7.76835 10.2022 7.33242 10.5162 7.01687C10.8303 6.6995 11.265 6.50342 11.7424 6.50342Z"
                            fill="#E2000F"
                        />
                        <path
                            d="M15.0616 6.50342H14.458C14.3337 6.58367 14.2184 6.68035 14.1168 6.7907C13.9262 6.9959 13.7801 7.24852 13.6938 7.53032H15.0616C15.2576 7.53032 15.4355 7.61149 15.5653 7.74191C15.6951 7.87232 15.7759 8.05198 15.7759 8.24806V9.29594H14.3237V10.2371H15.7759V11.8422C15.7759 12.0392 15.6951 12.218 15.5653 12.3484C15.4355 12.4788 15.2576 12.56 15.0616 12.56H13.6938C13.7801 12.8418 13.9262 13.0944 14.1168 13.2996C14.2184 13.4099 14.3337 13.5066 14.458 13.5869H15.0616C15.5399 13.5869 15.9737 13.3908 16.2878 13.0752C16.6018 12.7597 16.7969 12.3228 16.7969 11.8431V8.24897C16.7969 7.76835 16.6018 7.33242 16.2878 7.01687C15.9737 6.6995 15.5399 6.50342 15.0616 6.50342Z"
                            fill="#1A1A18"
                        />
                    </svg>